<?xml version="1.0" encoding="UTF-8" standalone="no"?>
<!-- Created with Inkscape (http://www.inkscape.org/) -->

<svg
   xmlns:dc="http://purl.org/dc/elements/1.1/"
   xmlns:cc="http://creativecommons.org/ns#"
   xmlns:rdf="http://www.w3.org/1999/02/22-rdf-syntax-ns#"
   xmlns:svg="http://www.w3.org/2000/svg"
   xmlns="http://www.w3.org/2000/svg"
   xmlns:xlink="http://www.w3.org/1999/xlink"
   xmlns:sodipodi="http://sodipodi.sourceforge.net/DTD/sodipodi-0.dtd"
   xmlns:inkscape="http://www.inkscape.org/namespaces/inkscape"
   width="744.09448819"
   height="1052.3622047"
   id="svg2"
   version="1.1"
   inkscape:version="0.48.5 r10040"
   sodipodi:docname="drawing.svg">
  <defs
     id="defs4" />
  <sodipodi:namedview
     id="base"
     pagecolor="#ffffff"
     bordercolor="#666666"
     borderopacity="1.0"
     inkscape:pageopacity="0.0"
     inkscape:pageshadow="2"
     inkscape:zoom="2.8284271"
     inkscape:cx="174.16643"
     inkscape:cy="296.55868"
     inkscape:document-units="px"
     inkscape:current-layer="layer1"
     showgrid="false"
     showguides="true"
     inkscape:guide-bbox="true"
     inkscape:window-width="1855"
     inkscape:window-height="1056"
     inkscape:window-x="65"
     inkscape:window-y="24"
     inkscape:window-maximized="1">
    <sodipodi:guide
       orientation="0,1"
       position="685.54002,76.013979"
       id="guide3184" />
  </sodipodi:namedview>
  <metadata
     id="metadata7">
    <rdf:RDF>
      <cc:Work
         rdf:about="">
        <dc:format>image/svg+xml</dc:format>
        <dc:type
           rdf:resource="http://purl.org/dc/dcmitype/StillImage" />
        <dc:title></dc:title>
      </cc:Work>
    </rdf:RDF>
  </metadata>
  <g
     inkscape:label="Layer 1"
     inkscape:groupmode="layer"
     id="layer1">
    <image
       y="304.7128"
       x="730.10004"
       id="image3063"
       xlink:href="file:///home/jacob/Pictures/needles.png"
       height="759"
       width="520" />
    <image
       y="713.64441"
       x="427.78592"
       id="image3181"
       xlink:href="file:///home/jacob/Development/quickpanel/panel/images/alt.png"
       height="256"
       width="256" />
    <g
       id="g3112"
       transform="matrix(0.22015059,0,0,0.22236179,192.94763,641.22934)"
       inkscape:export-filename="/home/jacob/Development/quickpanel/panel/images/altimeter/needle_10k.png"
       inkscape:export-xdpi="90"
       inkscape:export-ydpi="90">
      <rect
         y="451.86218"
         x="791.59082"
         height="419.5"
         width="6.7651649"
         id="rect3110"
         style="fill:#000000;fill-opacity:1;stroke:none" />
      <g
         transform="translate(290.87284,-2.71154)"
         id="g3102"
         inkscape:transform-center-y="-36.769553">
        <path
           style="fill:#dfd9a4;fill-opacity:1;stroke:none"
           d="m 460.91382,390.18153 43.15228,72.64285 43.15228,-72.64285 z"
           id="path3104"
           inkscape:connector-curvature="0"
           sodipodi:nodetypes="cccc" />
        <path
           style="fill:#000000;fill-opacity:1;stroke:none"
           d="m 488.74467,872.66577 11.66072,-6 7.32142,0 11.66072,6 0,70.44643 -6.91608,6.75 0,89.6258 0,10.0763 -16.63391,-0.1768 0,-9.8995 0,-89.6258 -7.09287,-6.75 z"
           id="path3106"
           inkscape:connector-curvature="0"
           sodipodi:nodetypes="ccccccccccccc" />
        <path
           sodipodi:type="arc"
           style="fill:#000000;fill-opacity:1;stroke:none"
           id="path3108"
           sodipodi:cx="503.81357"
           sodipodi:cy="1056.9584"
           sodipodi:rx="14.495689"
           sodipodi:ry="14.495689"
           d="m 518.30926,1056.9584 c 0,8.0057 -6.48994,14.4957 -14.49569,14.4957 -8.00575,0 -14.49569,-6.49 -14.49569,-14.4957 0,-8.0058 6.48994,-14.4957 14.49569,-14.4957 8.00575,0 14.49569,6.4899 14.49569,14.4957 z"
           transform="matrix(1.195122,0,0,1.195122,-98.052552,-206.76611)" />
      </g>
    </g>
    <g
       id="g3089"
       transform="matrix(0.23089199,0,0,0.224351,280.7761,638.49048)"
       inkscape:export-filename="/home/jacob/Development/quickpanel/panel/images/altimeter/needle.png"
       inkscape:export-xdpi="90"
       inkscape:export-ydpi="90">
      <path
         sodipodi:nodetypes="cccccc"
         inkscape:connector-curvature="0"
         id="rect3066"
         d="m 488.91382,496.54368 15.15228,-64.64285 15.15228,64.64285 0,376.13388 -30.30456,0 z"
         style="fill:#dfd9a4;fill-opacity:1;stroke:none" />
      <path
         sodipodi:nodetypes="ccccccccccc"
         inkscape:connector-curvature="0"
         id="rect3080"
         d="m 488.74467,872.66577 30.64286,0 0,70.44643 -6.91608,6.75 0,89.6258 0,10.0763 -16.63391,-0.1768 0,-9.8995 0,-89.6258 -7.09287,-6.75 z"
         style="fill:#000000;fill-opacity:1;stroke:none" />
      <path
         transform="matrix(1.195122,0,0,1.195122,-98.052552,-206.76611)"
         d="m 518.30926,1056.9584 c 0,8.0057 -6.48994,14.4957 -14.49569,14.4957 -8.00575,0 -14.49569,-6.49 -14.49569,-14.4957 0,-8.0058 6.48994,-14.4957 14.49569,-14.4957 8.00575,0 14.49569,6.4899 14.49569,14.4957 z"
         sodipodi:ry="14.495689"
         sodipodi:rx="14.495689"
         sodipodi:cy="1056.9584"
         sodipodi:cx="503.81357"
         id="path3083"
         style="fill:#000000;fill-opacity:1;stroke:none"
         sodipodi:type="arc" />
    </g>
    <g
       transform="matrix(0.22296712,0,0,0.2278601,302.26255,634.72258)"
       id="g3094"
       inkscape:transform-center-y="-17.025787"
       inkscape:export-filename="/home/jacob/Development/quickpanel/panel/images/altimeter/needle_1k.png"
       inkscape:export-xdpi="90"
       inkscape:export-ydpi="90">
      <path
         style="fill:#dfd9a4;fill-opacity:1;stroke:none"
         d="m 474.91382,687.64271 29.15228,-96.64285 29.15228,96.64285 -14,185.03485 -30.30456,0 z"
         id="path3096"
         inkscape:connector-curvature="0"
         sodipodi:nodetypes="cccccc" />
      <path
         style="fill:#000000;fill-opacity:1;stroke:none"
         d="m 488.74467,872.66577 30.64286,0 0,70.44643 -6.91608,6.75 0,89.6258 0,10.0763 -16.63391,-0.1768 0,-9.8995 0,-89.6258 -7.09287,-6.75 z"
         id="path3098"
         inkscape:connector-curvature="0"
         sodipodi:nodetypes="ccccccccccc" />
      <path
         sodipodi:type="arc"
         style="fill:#000000;fill-opacity:1;stroke:none"
         id="path3100"
         sodipodi:cx="503.81357"
         sodipodi:cy="1056.9584"
         sodipodi:rx="14.495689"
         sodipodi:ry="14.495689"
         d="m 518.30926,1056.9584 a 14.495689,14.495689 0 1 1 -28.99138,0 14.495689,14.495689 0 1 1 28.99138,0 z"
         transform="matrix(1.195122,0,0,1.195122,-98.052552,-206.76611)" />
    </g>
    <image
       y="688.86218"
       x="413.5"
       id="image3204"
       xlink:href="file:///home/jacob/Development/quickpanel/example-panel/images/mp/manpress.png"
       height="256"
       width="256" />
    <g
       id="g3991">
      <g
         id="g3134"
         transform="matrix(0.23089199,0,0,0.224351,425.2761,613.24048)"
         inkscape:export-filename="/home/jacob/Development/quickpanel/panel/images/altimeter/needle.png"
         inkscape:export-xdpi="90"
         inkscape:export-ydpi="90">
        <path
           sodipodi:nodetypes="cccccc"
           inkscape:connector-curvature="0"
           id="path3136"
           d="m 488.91382,496.54368 15.15228,-64.64285 15.15228,64.64285 0,376.13388 -30.30456,0 z"
           style="fill:#dfd9a4;fill-opacity:1;stroke:none" />
        <path
           sodipodi:nodetypes="ccccccccccc"
           inkscape:connector-curvature="0"
           id="path3138"
           d="m 488.74467,872.66577 30.64286,0 0,70.44643 -6.91608,6.75 0,89.6258 0,10.0763 -16.63391,-0.1768 0,-9.8995 0,-89.6258 -7.09287,-6.75 z"
           style="fill:#000000;fill-opacity:1;stroke:none" />
        <path
           transform="matrix(1.195122,0,0,1.195122,-98.052552,-206.76611)"
           d="m 518.30926,1056.9584 c 0,8.0057 -6.48994,14.4957 -14.49569,14.4957 -8.00575,0 -14.49569,-6.49 -14.49569,-14.4957 0,-8.0058 6.48994,-14.4957 14.49569,-14.4957 8.00575,0 14.49569,6.4899 14.49569,14.4957 z"
           sodipodi:ry="14.495689"
           sodipodi:rx="14.495689"
           sodipodi:cy="1056.9584"
           sodipodi:cx="503.81357"
           id="path3140"
           style="fill:#000000;fill-opacity:1;stroke:none"
           sodipodi:type="arc" />
      </g>
      <g
         transform="translate(-0.08906881,0)"
         id="g3982">
        <rect
           style="fill:#dfd9a4;fill-opacity:1;stroke:#303030;stroke-opacity:1"
           id="rect3207"
           width="10.5"
           height="14.094604"
           x="536.5"
           y="748.12738"
           ry="2.3540595" />
        <text
           xml:space="preserve"
           style="font-size:9.80877399px;font-style:normal;font-weight:normal;line-height:125%;letter-spacing:0px;word-spacing:0px;fill:#000000;fill-opacity:1;stroke:none;font-family:Sans"
           x="538.54346"
           y="758.75"
           id="text3209"
           sodipodi:linespacing="125%"><tspan
             style="-inkscape-font-specification:Bitstream Vera Sans Mono Bold;font-family:Bitstream Vera Sans Mono;font-weight:bold;font-style:normal;font-stretch:normal;font-variant:normal;font-size:10px"
             sodipodi:role="line"
             id="tspan3211"
             x="538.54346"
             y="758.75">1</tspan></text>
      </g>
    </g>
    <g
       id="g4001"
       transform="translate(-269.40768,0)"
       inkscape:export-filename="/home/jacob/Development/quickpanel/example-panel/images/needle_e1.png"
       inkscape:export-xdpi="90"
       inkscape:export-ydpi="90">
      <g
         inkscape:export-ydpi="90"
         inkscape:export-xdpi="90"
         inkscape:export-filename="/home/jacob/Development/quickpanel/panel/images/altimeter/needle.png"
         transform="matrix(0.23089199,0,0,0.224351,425.2761,613.24048)"
         id="g4003">
        <path
           style="fill:#dfd9a4;fill-opacity:1;stroke:none"
           d="m 488.91382,496.54368 15.15228,-64.64285 15.15228,64.64285 0,376.13388 -30.30456,0 z"
           id="path4005"
           inkscape:connector-curvature="0"
           sodipodi:nodetypes="cccccc" />
        <path
           style="fill:#000000;fill-opacity:1;stroke:none"
           d="m 488.74467,872.66577 30.64286,0 0,70.44643 -6.91608,6.75 0,89.6258 0,10.0763 -16.63391,-0.1768 0,-9.8995 0,-89.6258 -7.09287,-6.75 z"
           id="path4007"
           inkscape:connector-curvature="0"
           sodipodi:nodetypes="ccccccccccc" />
        <path
           sodipodi:type="arc"
           style="fill:#000000;fill-opacity:1;stroke:none"
           id="path4009"
           sodipodi:cx="503.81357"
           sodipodi:cy="1056.9584"
           sodipodi:rx="14.495689"
           sodipodi:ry="14.495689"
           d="m 518.30926,1056.9584 c 0,8.0057 -6.48994,14.4957 -14.49569,14.4957 -8.00575,0 -14.49569,-6.49 -14.49569,-14.4957 0,-8.0058 6.48994,-14.4957 14.49569,-14.4957 8.00575,0 14.49569,6.4899 14.49569,14.4957 z"
           transform="matrix(1.195122,0,0,1.195122,-98.052552,-206.76611)" />
      </g>
      <g
         id="g4011"
         transform="translate(-0.08906881,0)">
        <rect
           ry="2.3540595"
           y="748.12738"
           x="536.5"
           height="14.094604"
           width="10.5"
           id="rect4013"
           style="fill:#dfd9a4;fill-opacity:1;stroke:#afa760;stroke-opacity:1" />
        <text
           sodipodi:linespacing="125%"
           id="text4015"
           y="758.75"
           x="538.54346"
           style="font-size:9.80877399px;font-style:normal;font-weight:normal;line-height:125%;letter-spacing:0px;word-spacing:0px;fill:#000000;fill-opacity:1;stroke:none;font-family:Sans"
           xml:space="preserve"><tspan
             y="758.75"
             x="538.54346"
             id="tspan4017"
             sodipodi:role="line"
             style="font-size:10px;font-style:normal;font-variant:normal;font-weight:bold;font-stretch:normal;font-family:Bitstream Vera Sans Mono;-inkscape-font-specification:Bitstream Vera Sans Mono Bold">1</tspan></text>
      </g>
    </g>
    <g
       transform="translate(-287.08535,0)"
       id="g4019"
       inkscape:export-filename="/home/jacob/Development/quickpanel/example-panel/images/needle_e3.png"
       inkscape:export-xdpi="90"
       inkscape:export-ydpi="90">
      <g
         id="g4021"
         transform="matrix(0.23089199,0,0,0.224351,425.2761,613.24048)"
         inkscape:export-filename="/home/jacob/Development/quickpanel/panel/images/altimeter/needle.png"
         inkscape:export-xdpi="90"
         inkscape:export-ydpi="90">
        <path
           sodipodi:nodetypes="cccccc"
           inkscape:connector-curvature="0"
           id="path4023"
           d="m 488.91382,496.54368 15.15228,-64.64285 15.15228,64.64285 0,376.13388 -30.30456,0 z"
           style="fill:#dfd9a4;fill-opacity:1;stroke:none" />
        <path
           sodipodi:nodetypes="ccccccccccc"
           inkscape:connector-curvature="0"
           id="path4025"
           d="m 488.74467,872.66577 30.64286,0 0,70.44643 -6.91608,6.75 0,89.6258 0,10.0763 -16.63391,-0.1768 0,-9.8995 0,-89.6258 -7.09287,-6.75 z"
           style="fill:#000000;fill-opacity:1;stroke:none" />
        <path
           transform="matrix(1.195122,0,0,1.195122,-98.052552,-206.76611)"
           d="m 518.30926,1056.9584 c 0,8.0057 -6.48994,14.4957 -14.49569,14.4957 -8.00575,0 -14.49569,-6.49 -14.49569,-14.4957 0,-8.0058 6.48994,-14.4957 14.49569,-14.4957 8.00575,0 14.49569,6.4899 14.49569,14.4957 z"
           sodipodi:ry="14.495689"
           sodipodi:rx="14.495689"
           sodipodi:cy="1056.9584"
           sodipodi:cx="503.81357"
           id="path4027"
           style="fill:#000000;fill-opacity:1;stroke:none"
           sodipodi:type="arc" />
      </g>
      <g
         transform="translate(-0.08906881,0)"
         id="g4029">
        <rect
           style="fill:#dfd9a4;fill-opacity:1;stroke:#afa760;stroke-opacity:1"
           id="rect4031"
           width="10.5"
           height="14.094604"
           x="536.5"
           y="748.12738"
           ry="2.3540595" />
        <text
           xml:space="preserve"
           style="font-size:9.80877399px;font-style:normal;font-weight:normal;line-height:125%;letter-spacing:0px;word-spacing:0px;fill:#000000;fill-opacity:1;stroke:none;font-family:Sans"
           x="538.54346"
           y="758.75"
           id="text4033"
           sodipodi:linespacing="125%"><tspan
             style="font-size:10px;font-style:normal;font-variant:normal;font-weight:bold;font-stretch:normal;font-family:Bitstream Vera Sans Mono;-inkscape-font-specification:Bitstream Vera Sans Mono Bold"
             sodipodi:role="line"
             id="tspan4035"
             x="538.54346"
             y="758.75">3</tspan></text>
      </g>
    </g>
    <g
       id="g4099"
       inkscape:export-filename="/home/jacob/Development/quickpanel/example-panel/images/needle_e2.png"
       inkscape:export-xdpi="90"
       inkscape:export-ydpi="90">
      <g
         inkscape:export-ydpi="90"
         inkscape:export-xdpi="90"
         inkscape:export-filename="/home/jacob/Development/quickpanel/panel/images/altimeter/needle.png"
         transform="matrix(0.23089199,0,0,0.224351,123.69075,613.24048)"
         id="g4039">
        <path
           style="fill:#dfd9a4;fill-opacity:1;stroke:none"
           d="m 488.91382,496.54368 15.15228,-64.64285 15.15228,64.64285 0,376.13388 -30.30456,0 z"
           id="path4041"
           inkscape:connector-curvature="0"
           sodipodi:nodetypes="cccccc" />
        <path
           style="fill:#000000;fill-opacity:1;stroke:none"
           d="m 488.74467,872.66577 30.64286,0 0,70.44643 -6.91608,6.75 0,89.6258 0,10.0763 -16.63391,-0.1768 0,-9.8995 0,-89.6258 -7.09287,-6.75 z"
           id="path4043"
           inkscape:connector-curvature="0"
           sodipodi:nodetypes="ccccccccccc" />
        <path
           sodipodi:type="arc"
           style="fill:#000000;fill-opacity:1;stroke:none"
           id="path4045"
           sodipodi:cx="503.81357"
           sodipodi:cy="1056.9584"
           sodipodi:rx="14.495689"
           sodipodi:ry="14.495689"
           d="m 518.30926,1056.9584 c 0,8.0057 -6.48994,14.4957 -14.49569,14.4957 -8.00575,0 -14.49569,-6.49 -14.49569,-14.4957 0,-8.0058 6.48994,-14.4957 14.49569,-14.4957 8.00575,0 14.49569,6.4899 14.49569,14.4957 z"
           transform="matrix(1.195122,0,0,1.195122,-98.052552,-206.76611)" />
      </g>
      <g
         id="g4047"
         transform="translate(-301.67442,16)">
        <rect
           ry="2.3540595"
           y="748.12738"
           x="536.5"
           height="14.094604"
           width="10.5"
           id="rect4049"
           style="fill:#dfd9a4;fill-opacity:1;stroke:#afa760;stroke-opacity:1" />
        <text
           sodipodi:linespacing="125%"
           id="text4051"
           y="758.75"
           x="538.54346"
           style="font-size:9.80877399px;font-style:normal;font-weight:normal;line-height:125%;letter-spacing:0px;word-spacing:0px;fill:#000000;fill-opacity:1;stroke:none;font-family:Sans"
           xml:space="preserve"><tspan
             y="758.75"
             x="538.54346"
             id="tspan4053"
             sodipodi:role="line"
             style="font-size:10px;font-style:normal;font-variant:normal;font-weight:bold;font-stretch:normal;font-family:Bitstream Vera Sans Mono;-inkscape-font-specification:Bitstream Vera Sans Mono Bold">2</tspan></text>
      </g>
    </g>
    <g
       id="g4089"
       inkscape:export-filename="/home/jacob/Development/quickpanel/example-panel/images/needle_e4.png"
       inkscape:export-xdpi="90"
       inkscape:export-ydpi="90">
      <g
         id="g4057"
         transform="matrix(0.23089199,0,0,0.224351,106.19075,613.24048)"
         inkscape:export-filename="/home/jacob/Development/quickpanel/panel/images/altimeter/needle.png"
         inkscape:export-xdpi="90"
         inkscape:export-ydpi="90">
        <path
           sodipodi:nodetypes="cccccc"
           inkscape:connector-curvature="0"
           id="path4059"
           d="m 488.91382,496.54368 15.15228,-64.64285 15.15228,64.64285 0,376.13388 -30.30456,0 z"
           style="fill:#dfd9a4;fill-opacity:1;stroke:none" />
        <path
           sodipodi:nodetypes="ccccccccccc"
           inkscape:connector-curvature="0"
           id="path4061"
           d="m 488.74467,872.66577 30.64286,0 0,70.44643 -6.91608,6.75 0,89.6258 0,10.0763 -16.63391,-0.1768 0,-9.8995 0,-89.6258 -7.09287,-6.75 z"
           style="fill:#000000;fill-opacity:1;stroke:none" />
        <path
           transform="matrix(1.195122,0,0,1.195122,-98.052552,-206.76611)"
           d="m 518.30926,1056.9584 c 0,8.0057 -6.48994,14.4957 -14.49569,14.4957 -8.00575,0 -14.49569,-6.49 -14.49569,-14.4957 0,-8.0058 6.48994,-14.4957 14.49569,-14.4957 8.00575,0 14.49569,6.4899 14.49569,14.4957 z"
           sodipodi:ry="14.495689"
           sodipodi:rx="14.495689"
           sodipodi:cy="1056.9584"
           sodipodi:cx="503.81357"
           id="path4063"
           style="fill:#000000;fill-opacity:1;stroke:none"
           sodipodi:type="arc" />
      </g>
      <g
         transform="translate(-319.17442,16)"
         id="g4065">
        <rect
           style="fill:#dfd9a4;fill-opacity:1;stroke:#afa760;stroke-opacity:1"
           id="rect4067"
           width="10.5"
           height="14.094604"
           x="536.5"
           y="748.12738"
           ry="2.3540595" />
        <text
           xml:space="preserve"
           style="font-size:9.80877399px;font-style:normal;font-weight:normal;line-height:125%;letter-spacing:0px;word-spacing:0px;fill:#000000;fill-opacity:1;stroke:none;font-family:Sans"
           x="538.54346"
           y="758.75"
           id="text4069"
           sodipodi:linespacing="125%"><tspan
             style="font-size:10px;font-style:normal;font-variant:normal;font-weight:bold;font-stretch:normal;font-family:Bitstream Vera Sans Mono;-inkscape-font-specification:Bitstream Vera Sans Mono Bold"
             sodipodi:role="line"
             id="tspan4071"
             x="538.54346"
             y="758.75">4</tspan></text>
      </g>
    </g>
  </g>
</svg>
